<svg xmlns="http://www.w3.org/2000/svg" viewBox="-100 -150 200 240" width="66" height="82">
  <!-- Nook companion asset: species=bunny state=idle
       Palette (body/belly/ink/accent/cheek/earfill custom properties) is
       applied by the app on the parent element; do not hardcode colors here. -->
  <g><circle cx="42" cy="46" r="19" fill="var(--body)" stroke="var(--ink)" stroke-width="3.5"/><g class="legs"><ellipse class="leg leg-left" cx="-15" cy="88" rx="11" ry="15" fill="var(--body)" stroke="var(--ink)" stroke-width="3"/><ellipse class="leg leg-right" cx="15" cy="88" rx="11" ry="15" fill="var(--body)" stroke="var(--ink)" stroke-width="3"/></g><ellipse cx="0" cy="52" rx="30" ry="36" fill="var(--body)" stroke="var(--ink)" stroke-width="4"/><ellipse cx="0" cy="61" rx="18" ry="22" fill="var(--belly)"/><ellipse cx="-24" cy="-110" rx="10" ry="36" fill="var(--earfill)" stroke="var(--ink)" stroke-width="3.5" transform="rotate(-8 -24 -110)"/><ellipse cx="-24" cy="-110" rx="4.5" ry="28" fill="var(--body)" opacity="0.5" transform="rotate(-8 -24 -110)"/><ellipse cx="24" cy="-110" rx="10" ry="36" fill="var(--earfill)" stroke="var(--ink)" stroke-width="3.5" transform="rotate(8 24 -110)"/><ellipse cx="24" cy="-110" rx="4.5" ry="28" fill="var(--body)" opacity="0.5" transform="rotate(8 24 -110)"/><circle cx="0" cy="-34" r="50" fill="var(--body)" stroke="var(--ink)" stroke-width="4"/><circle cx="-32" cy="-20" r="9" fill="var(--cheek)" opacity="0.85"/><circle cx="32" cy="-20" r="9" fill="var(--cheek)" opacity="0.85"/><g transform="translate(0,-34)"><g class="eyes"><circle cx="-14" cy="-4" r="3.4" fill="var(--ink)"/><circle cx="14" cy="-4" r="3.4" fill="var(--ink)"/></g><line x1="-9" y1="12" x2="9" y2="12" stroke="var(--ink)" stroke-width="3.2" stroke-linecap="round"/></g><ellipse cx="0" cy="-27" rx="4.5" ry="3.2" fill="var(--cheek)"/></g>
  
  
</svg>
