<svg xmlns="http://www.w3.org/2000/svg"
     viewBox="0 0 256 256">

  <!-- Nook accessory asset: rounded cozy sunglasses -->


  <!-- frame silhouette -->
  <path
    d="
      M88 91
      Q90 78 108 78
      Q124 78 128 88
      Q132 78 148 78
      Q166 78 168 91
      Q166 108 148 109
      Q132 108 128 96
      Q124 108 108 109
      Q90 108 88 91
      Z"
    fill="var(--lens,#34343B)"
    stroke="var(--ink,#74553B)"
    stroke-width="4"
    stroke-linejoin="round"/>


  <!-- subtle warm lens tint -->
  <path
    d="
      M94 91
      Q98 82 109 82
      Q120 82 124 90
      Q120 99 109 101
      Q98 100 94 91
      Z"
    fill="var(--lensGlow,#4B4B55)"
    opacity=".8"/>

  <path
    d="
      M132 90
      Q136 82 147 82
      Q158 82 162 91
      Q158 100 147 101
      Q136 99 132 90
      Z"
    fill="var(--lensGlow,#4B4B55)"
    opacity=".8"/>


  <!-- bridge -->
  <path
    d="M123 88 Q128 84 133 88"
    fill="none"
    stroke="var(--ink,#74553B)"
    stroke-width="4"
    stroke-linecap="round"/>


  <!-- side arms -->
  <path
    d="M89 91 L78 94"
    fill="none"
    stroke="var(--ink,#74553B)"
    stroke-width="4"
    stroke-linecap="round"/>

  <path
    d="M167 91 L178 94"
    fill="none"
    stroke="var(--ink,#74553B)"
    stroke-width="4"
    stroke-linecap="round"/>


  <!-- tiny highlights -->
  <path
    d="M101 87 Q106 84 111 87"
    fill="none"
    stroke="#FFFFFF"
    stroke-opacity=".18"
    stroke-width="3"
    stroke-linecap="round"/>

  <path
    d="M142 87 Q147 84 152 87"
    fill="none"
    stroke="#FFFFFF"
    stroke-opacity=".18"
    stroke-width="3"
    stroke-linecap="round"/>

</svg>