<svg xmlns="http://www.w3.org/2000/svg"
     viewBox="0 0 64 64">

  <!-- Nook icon: mug -->

  <!-- handle -->

  <path
    d="
      M45 24
      C57 22 57 39 47 40
      C44 40 43 38 43 36"
    fill="none"
    stroke="var(--ink,#74553B)"
    stroke-width="4"
    stroke-linecap="round"/>


  <!-- cup -->

  <path
    d="
      M14 20
      H46
      V38
      C46 47 40 52 30 52
      C20 52 14 47 14 38
      Z"
    fill="var(--paper,#FFF7EA)"
    stroke="var(--ink,#74553B)"
    stroke-width="4"
    stroke-linejoin="round"/>


  <!-- coffee -->

  <path
    d="
      M17 23
      H43
      C42 28 36 30 30 30
      C24 30 18 28 17 23
      Z"
    fill="var(--accent,#C88A55)"/>


  <!-- steam -->

  <path
    d="
      M24 16
      C20 12 25 9 23 5"
    fill="none"
    stroke="var(--ink,#74553B)"
    stroke-width="3"
    stroke-linecap="round"/>

  <path
    d="
      M35 16
      C31 12 36 9 34 5"
    fill="none"
    stroke="var(--ink,#74553B)"
    stroke-width="3"
    stroke-linecap="round"/>

</svg>
